# xmcd
#
# Track frame offsets:
#	150
#	15450
#	28889
#	44013
#	61171
#	79419
#	93127
#	110384
#	123532
#	141333
#	157691
#	173640
#	174330
#	175282
#	175951
#	176729
#	177728
#	178539
#	179289
#	180020
#	180765
#	181471
#	182292
#	183287
#	184146
#	184919
#	185678
#	186460
#	187257
#	188035
#	188860
#	189946
#	190847
#	191610
#	192388
#	193199
#	193862
#	194702
#	195343
#	196000
#	196920
#	197693
#	198369
#	199055
#	199729
#	200400
#	201062
#	202024
#	202752
#	203426
#	204090
#	204797
#	205468
#	206291
#	207023
#	207958
#	208733
#	209418
#	210175
#
# Disc length: 2808 seconds
#
# Revision: 1
# Processed by: cddbd v1.5.2PL0 Copyright (c) Steve Scherf et al.
# Submitted via: audiograbber 1.83.01
#
DISCID=6c0af63b
DTITLE=Various Artist - CDX Volume 624 (October 26, 2015)
DYEAR=2015
DGENRE=Country
TTITLE0=Toby Keith - Beautiful Stranger (Radio Edit)
TTITLE1=Brett Eldredge - Drunk On Your Love 
TTITLE2=John Conlee - Walkin' Behind The Star
TTITLE3=Sarah Dunn Band - Backwoods Party
TTITLE4=Debbie Cochran - Before We Met The World
TTITLE5=Robby Johnson - Hate Me Tonight 
TTITLE6=Conscious Rednecks - I've Got Your Key
TTITLE7=Josh Christina - Kayla Ann 
TTITLE8=Mike Aiken - Night Rider's Lament (Album Version)
TTITLE9=Ward Davis - Old Wore Out Cowboys (featuring Jamey Johnson and Willie N
TTITLE9=elson)
TTITLE10=Dustin Bragg - One Way Ticket Home
TTITLE11=Ashley Gearing - Radio Liner - Hometown Country
TTITLE12=Ashley Gearing - Radio Liner - Howlin' Country
TTITLE13=Ashley Gearing - Radio Liner - Kickin' Country
TTITLE14=Ashley Gearing - Radio Liner - More of the Country You Love
TTITLE15=Ashley Gearing - Radio Liner - My New Single
TTITLE16=Ashley Gearing - Radio Liner - Super Country
TTITLE17=Ashley Gearing - Radio Liner - The Best In Today's Country
TTITLE18=Ashley Gearing - Radio Liner - Today's Hot Country Music
TTITLE19=Ricky Gunn - Radio Liner - Hometown Country
TTITLE20=Ricky Gunn - Radio Liner - Kickin' Country
TTITLE21=Ricky Gunn - Radio Liner - More of the Country You Love
TTITLE22=Ricky Gunn - Radio Liner - My New Single
TTITLE23=Ricky Gunn - Radio Liner - Super Country
TTITLE24=Ricky Gunn - Radio Liner - The Best In Country Music
TTITLE25=Ricky Gunn - Radio Liner - Today's Best Country
TTITLE26=Ricky Gunn - Radio Liner - Today's Hot Country Music
TTITLE27=Leslie Cours Mather - Radio Liner - Hometown Country
TTITLE28=Leslie Cours Mather - Radio Liner - Kickin' Country
TTITLE29=Leslie Cours Mather - Radio Liner - More of the Country You Love 
TTITLE30=Leslie Cours Mather - Radio Liner - My New Single
TTITLE31=Leslie Cours Mather - Radio Liner - Super Country
TTITLE32=Leslie Cours Mather - Radio Liner - The Best In Country Music
TTITLE33=Leslie Cours Mather - Radio Liner - Today's Best Country
TTITLE34=Leslie Cours Mather - Radio Liner - Today's Hot Country Music
TTITLE35=Allie Louise - Radio Liner - Hometown Country
TTITLE36=Allie Louise - Radio Liner - Howlin' Country
TTITLE37=Allie Louise - Radio Liner - Kickin' Country
TTITLE38=Allie Louise - Radio Liner - More of the Country You Love
TTITLE39=Allie Louise - Radio Liner - My New Single
TTITLE40=Allie Louise - Radio Liner - Super Country
TTITLE41=Allie Louise - Radio Liner - The Best In Country Music
TTITLE42=Allie Louise - Radio Liner - Today's Best Country
TTITLE43=Shane Owens - Radio Liner - Hometown Country
TTITLE44=Shane Owens - Radio Liner - Kickin' Country
TTITLE45=Shane Owens - Radio Liner - More of the Country You Love
TTITLE46=Shane Owens - Radio Liner - My New Single
TTITLE47=Shane Owens - Radio Liner - Super Country
TTITLE48=Shane Owens - Radio Liner - The Best In Country Music
TTITLE49=Shane Owens - Radio Liner - Today's Best Country
TTITLE50=Shane Owens - Radio Liner - Today's Hot Country Music
TTITLE51=Jordyn Stoddard - Radio Liner - Hometown Country
TTITLE52=Jordyn Stoddard - Radio Liner - Howlin' Country
TTITLE53=Jordyn Stoddard - Radio Liner - More of the Country You Love Next
TTITLE54=Jordyn Stoddard - Radio Liner - My New Single
TTITLE55=Jordyn Stoddard - Radio Liner - Super Country
TTITLE56=Jordyn Stoddard - Radio Liner - The Best In Country Music
TTITLE57=Jordyn Stoddard - Radio Liner - Today's Best Country
TTITLE58=Jordyn Stoddard - Radio Liner - Today's Hot Country Music
EXTD=
EXTT0=
EXTT1=
EXTT2=
EXTT3=
EXTT4=
EXTT5=
EXTT6=
EXTT7=
EXTT8=
EXTT9=
EXTT10=
EXTT11=
EXTT12=
EXTT13=
EXTT14=
EXTT15=
EXTT16=
EXTT17=
EXTT18=
EXTT19=
EXTT20=
EXTT21=
EXTT22=
EXTT23=
EXTT24=
EXTT25=
EXTT26=
EXTT27=
EXTT28=
EXTT29=
EXTT30=
EXTT31=
EXTT32=
EXTT33=
EXTT34=
EXTT35=
EXTT36=
EXTT37=
EXTT38=
EXTT39=
EXTT40=
EXTT41=
EXTT42=
EXTT43=
EXTT44=
EXTT45=
EXTT46=
EXTT47=
EXTT48=
EXTT49=
EXTT50=
EXTT51=
EXTT52=
EXTT53=
EXTT54=
EXTT55=
EXTT56=
EXTT57=
EXTT58=
PLAYORDER=
